<?xml version="1.0" encoding="utf-8"?>
<svg height="666.66669" id="svg2" version="1.1" viewBox="0 0 666.66669 666.66669" width="666.66669" xml:space="preserve" xmlns="http://www.w3.org/2000/svg" xmlns:cc="http://creativecommons.org/ns#" xmlns:dc="http://purl.org/dc/elements/1.1/" xmlns:rdf="http://www.w3.org/1999/02/22-rdf-syntax-ns#" xmlns:svg="http://www.w3.org/2000/svg"><metadata id="metadata8"><rdf:RDF><cc:Work rdf:about=""><dc:format>image/svg+xml</dc:format><dc:type rdf:resource="http://purl.org/dc/dcmitype/StillImage"/></cc:Work></rdf:RDF></metadata><defs id="defs6"><clipPath clipPathUnits="userSpaceOnUse" id="clipPath20"><path d="M 0,500 H 500 V 0 H 0 Z" id="path18"/></clipPath></defs><g id="g10" transform="matrix(1.3333333,0,0,-1.3333333,0,666.66667)"><g id="g14"><g clip-path="url(#clipPath20)" id="g16"><g id="g22" transform="translate(135.7805,220.9427)"><path d="m 0,0 v 4.403 c 0,0.893 -0.675,1.329 -2.083,1.329 -1.408,0 -2.083,-0.436 -2.083,-1.329 V 0 c 0,-0.893 0.675,-1.329 2.083,-1.329 C -0.675,-1.329 0,-0.893 0,0 m -6.05,-0.159 v 4.721 c 0,1.766 1.368,2.717 3.967,2.717 2.599,0 3.968,-0.951 3.968,-2.717 v -4.721 c 0,-1.765 -1.369,-2.718 -3.968,-2.718 -2.599,0 -3.967,0.953 -3.967,2.718" id="path24" style="fill:#ffffff;fill-opacity:1;fill-rule:nonzero;stroke:none"/></g><g id="g26" transform="translate(149.2531,221.0619)"><path d="m 0,0 v 4.165 c 0,0.854 -0.496,1.29 -1.468,1.29 -0.892,0 -1.805,-0.338 -2.698,-1.032 V -0.278 C -3.193,-0.992 -2.341,-1.29 -1.468,-1.29 -0.496,-1.29 0,-0.854 0,0 m -4.622,7.002 c 0.258,0 0.357,-0.1 0.377,-0.397 l 0.04,-0.615 c 1.031,0.794 2.102,1.17 3.292,1.17 1.825,0 2.798,-0.951 2.798,-2.697 v -4.761 c 0,-1.745 -0.973,-2.698 -2.798,-2.698 -1.19,0 -2.28,0.377 -3.253,1.111 v -4.622 c 0,-0.258 -0.119,-0.377 -0.356,-0.377 h -1.151 c -0.259,0 -0.377,0.119 -0.377,0.377 V 6.605 c 0,0.297 0.118,0.397 0.377,0.397 z" id="path28" style="fill:#ffffff;fill-opacity:1;fill-rule:nonzero;stroke:none"/></g><g id="g30" transform="translate(158.4016,225.3861)"><path d="M 0,0 V -1.25 H 3.968 V 0 C 3.968,0.893 3.333,1.329 1.983,1.329 0.635,1.329 0,0.893 0,0 m 5.732,0.119 v -2.42 c 0,-0.238 -0.098,-0.357 -0.336,-0.357 H 0 v -1.825 c 0,-0.953 0.615,-1.329 1.983,-1.329 1.37,0 1.985,0.376 1.985,1.329 v 0.218 c 0,0.258 0.119,0.377 0.377,0.377 h 1.011 c 0.258,0 0.376,-0.119 0.376,-0.377 v -0.338 c 0,-1.824 -1.249,-2.717 -3.788,-2.717 -2.539,0 -3.789,0.893 -3.789,2.717 v 4.722 c 0,1.824 1.27,2.717 3.828,2.717 2.52,0 3.749,-0.893 3.749,-2.717" id="path32" style="fill:#ffffff;fill-opacity:1;fill-rule:nonzero;stroke:none"/></g><g id="g34" transform="translate(174.9494,227.846)"><path d="M 0,0 V -0.913 C 0,-1.171 -0.1,-1.29 -0.396,-1.31 -1.508,-1.369 -2.678,-1.885 -3.472,-2.579 v -6.646 c 0,-0.296 -0.098,-0.396 -0.356,-0.396 h -1.151 c -0.258,0 -0.376,0.1 -0.376,0.396 v 9.066 c 0,0.258 0.118,0.377 0.376,0.377 h 1.051 c 0.258,0 0.358,-0.079 0.377,-0.377 l 0.06,-0.853 c 0.873,0.872 1.983,1.388 3.095,1.388 C -0.139,0.376 0,0.258 0,0" id="path36" style="fill:#ffffff;fill-opacity:1;fill-rule:nonzero;stroke:none"/></g><g id="g38" transform="translate(184.8713,220.6449)"><path d="m 0,0 v 1.706 h -2.737 c -0.893,0 -1.31,-0.357 -1.31,-1.21 V 0.1 c 0,-0.775 0.417,-1.112 1.429,-1.112 0.872,0 1.764,0.358 2.618,1.012 m -5.653,4.899 c 0,1.766 1.269,2.678 3.749,2.678 2.519,0 3.749,-0.872 3.749,-2.678 v -6.922 c 0,-0.297 -0.1,-0.397 -0.358,-0.397 H 0.456 c -0.258,0 -0.357,0.1 -0.377,0.397 l -0.04,0.575 c -0.952,-0.734 -2.003,-1.131 -3.134,-1.131 -1.686,0 -2.797,0.973 -2.797,2.4 v 0.952 c 0,1.429 1.072,2.401 2.757,2.401 H 0 V 4.701 C 0,5.653 -0.596,6.05 -1.924,6.05 -3.293,6.05 -3.888,5.653 -3.888,4.761 V 4.603 c 0,-0.298 -0.119,-0.398 -0.377,-0.398 h -1.032 c -0.258,0 -0.356,0.1 -0.356,0.398 z" id="path40" style="fill:#ffffff;fill-opacity:1;fill-rule:nonzero;stroke:none"/></g><g id="g42" transform="translate(195.9436,218.0658)"><path d="m 0,0 -0.238,-0.872 h 0.675 c 1.031,0 1.685,-0.596 1.685,-1.567 0,-1.012 -0.654,-1.587 -1.685,-1.587 h -2.243 c -0.257,0 -0.377,0.119 -0.377,0.377 v 0.396 c 0,0.238 0.12,0.357 0.377,0.357 h 1.964 c 0.477,0 0.635,0.139 0.635,0.457 0,0.297 -0.158,0.436 -0.635,0.436 H -1.15 c -0.457,0 -0.596,0.139 -0.516,0.476 L -1.25,0.1 c -1.666,0.257 -2.479,1.13 -2.479,2.618 v 4.721 c 0,1.825 1.269,2.717 3.808,2.717 2.539,0 3.789,-0.892 3.789,-2.717 V 7.082 C 3.868,6.824 3.769,6.705 3.511,6.705 H 2.439 c -0.257,0 -0.376,0.119 -0.376,0.377 v 0.219 c 0,0.931 -0.595,1.308 -1.964,1.308 -1.349,0 -1.944,-0.377 -1.944,-1.308 V 2.857 c 0,-0.932 0.595,-1.309 1.944,-1.309 1.369,0 1.964,0.377 1.964,1.309 v 0.397 c 0,0.258 0.119,0.377 0.376,0.377 h 1.072 c 0.238,0 0.357,-0.119 0.357,-0.377 V 2.718 C 3.868,0.894 2.599,0 0.06,0 Z" id="path44" style="fill:#ffffff;fill-opacity:1;fill-rule:nonzero;stroke:none"/></g><g id="g46" transform="translate(210.884,220.9427)"><path d="m 0,0 v 4.403 c 0,0.893 -0.675,1.329 -2.083,1.329 -1.408,0 -2.083,-0.436 -2.083,-1.329 V 0 c 0,-0.893 0.675,-1.329 2.083,-1.329 C -0.675,-1.329 0,-0.893 0,0 M -1.864,8.847 -2.718,9.362 C -3.293,9.7 -3.412,9.739 -3.511,9.739 -3.809,9.739 -3.888,9.641 -3.888,8.985 V 8.847 c 0,-0.239 -0.099,-0.337 -0.396,-0.337 h -0.635 c -0.238,0 -0.317,0.119 -0.317,0.436 l 0.019,0.635 c 0.02,0.972 0.655,1.587 1.587,1.587 0.397,0 0.853,-0.139 1.17,-0.317 l 0.854,-0.516 c 0.575,-0.338 0.694,-0.377 0.793,-0.377 0.297,0 0.376,0.119 0.376,0.754 v 0.139 c 0,0.237 0.12,0.337 0.417,0.337 h 0.615 c 0.238,0 0.317,-0.139 0.317,-0.437 L 0.893,10.116 C 0.873,9.145 0.218,8.529 -0.714,8.529 c -0.338,0 -0.833,0.139 -1.15,0.318 M -6.05,-0.159 v 4.721 c 0,1.766 1.368,2.717 3.967,2.717 2.599,0 3.968,-0.951 3.968,-2.717 v -4.721 c 0,-1.765 -1.369,-2.718 -3.968,-2.718 -2.599,0 -3.967,0.953 -3.967,2.718" id="path48" style="fill:#ffffff;fill-opacity:1;fill-rule:nonzero;stroke:none"/></g><g id="g50" transform="translate(219.9924,225.3861)"><path d="M 0,0 V -1.25 H 3.968 V 0 C 3.968,0.893 3.333,1.329 1.983,1.329 0.635,1.329 0,0.893 0,0 m 5.732,0.119 v -2.42 c 0,-0.238 -0.098,-0.357 -0.336,-0.357 H 0 v -1.825 c 0,-0.953 0.615,-1.329 1.983,-1.329 1.37,0 1.985,0.376 1.985,1.329 v 0.218 c 0,0.258 0.118,0.377 0.377,0.377 h 1.01 c 0.259,0 0.377,-0.119 0.377,-0.377 v -0.338 c 0,-1.824 -1.249,-2.717 -3.788,-2.717 -2.539,0 -3.789,0.893 -3.789,2.717 v 4.722 c 0,1.824 1.27,2.717 3.828,2.717 2.52,0 3.749,-0.893 3.749,-2.717" id="path52" style="fill:#ffffff;fill-opacity:1;fill-rule:nonzero;stroke:none"/></g><g id="g54" transform="translate(236.3615,225.7826)"><path d="M 0,0 C 0,0.694 -0.635,1.052 -1.885,1.052 -3.134,1.052 -3.729,0.714 -3.729,0 v -0.337 c 0,-0.397 0.297,-0.734 0.833,-0.913 L 0.079,-2.281 C 1.25,-2.678 1.865,-3.353 1.865,-4.225 v -1.111 c 0,-1.448 -1.409,-2.381 -3.769,-2.381 -2.361,0 -3.749,0.933 -3.749,2.381 v 0.496 c 0,0.238 0.099,0.357 0.337,0.357 h 1.051 c 0.239,0 0.337,-0.099 0.337,-0.357 v -0.417 c 0,-0.694 0.695,-1.051 2.024,-1.051 1.329,0 2.023,0.357 2.023,1.051 v 0.536 c 0,0.416 -0.277,0.695 -1.052,0.952 l -2.974,1.032 c -0.873,0.298 -1.548,1.131 -1.548,2.003 V 0 c 0,1.508 1.289,2.439 3.591,2.439 2.281,0 3.59,-0.931 3.59,-2.439 v -0.476 c 0,-0.258 -0.099,-0.357 -0.357,-0.357 H 0.337 C 0.1,-0.833 0,-0.734 0,-0.476 Z" id="path56" style="fill:#ffffff;fill-opacity:1;fill-rule:nonzero;stroke:none"/></g><g id="g58" transform="translate(252.4348,225.2269)"><path d="m 0,0 v -4.165 c 0,-0.854 0.496,-1.29 1.468,-1.29 0.873,0 1.746,0.317 2.698,1.012 V 0.258 C 3.293,0.913 2.36,1.29 1.468,1.29 0.496,1.29 0,0.854 0,0 M 4.205,-6.01 C 3.154,-6.804 2.103,-7.161 0.912,-7.161 c -1.824,0 -2.797,0.953 -2.797,2.698 v 4.761 c 0,1.746 0.973,2.697 2.797,2.697 1.131,0 2.163,-0.337 3.254,-1.13 v 4.602 c 0,0.298 0.099,0.396 0.356,0.396 H 5.673 C 5.931,6.863 6.05,6.765 6.05,6.467 V -6.605 c 0,-0.297 -0.119,-0.397 -0.377,-0.397 H 4.622 c -0.258,0 -0.357,0.1 -0.377,0.397 z" id="path60" style="fill:#ffffff;fill-opacity:1;fill-rule:nonzero;stroke:none"/></g><g id="g62" transform="translate(265.8879,225.3861)"><path d="M 0,0 V -1.25 H 3.968 V 0 C 3.968,0.893 3.333,1.329 1.983,1.329 0.635,1.329 0,0.893 0,0 m 5.732,0.119 v -2.42 c 0,-0.238 -0.098,-0.357 -0.336,-0.357 H 0 v -1.825 c 0,-0.953 0.615,-1.329 1.983,-1.329 1.37,0 1.985,0.376 1.985,1.329 v 0.218 c 0,0.258 0.119,0.377 0.377,0.377 h 1.011 c 0.258,0 0.376,-0.119 0.376,-0.377 v -0.338 c 0,-1.824 -1.249,-2.717 -3.788,-2.717 -2.539,0 -3.789,0.893 -3.789,2.717 v 4.722 c 0,1.824 1.27,2.717 3.828,2.717 2.52,0 3.749,-0.893 3.749,-2.717" id="path64" style="fill:#ffffff;fill-opacity:1;fill-rule:nonzero;stroke:none"/></g><g id="g66" transform="translate(285.9289,225.3861)"><path d="M 0,0 V -1.25 H 3.968 V 0 C 3.968,0.893 3.333,1.329 1.983,1.329 0.635,1.329 0,0.893 0,0 m 5.732,0.119 v -2.42 c 0,-0.238 -0.098,-0.357 -0.336,-0.357 H 0 v -1.825 c 0,-0.953 0.615,-1.329 1.983,-1.329 1.37,0 1.985,0.376 1.985,1.329 v 0.218 c 0,0.258 0.119,0.377 0.377,0.377 h 1.011 c 0.258,0 0.376,-0.119 0.376,-0.377 v -0.338 c 0,-1.824 -1.249,-2.717 -3.788,-2.717 -2.539,0 -3.789,0.893 -3.789,2.717 v 4.722 c 0,1.824 1.27,2.717 3.828,2.717 2.52,0 3.749,-0.893 3.749,-2.717" id="path68" style="fill:#ffffff;fill-opacity:1;fill-rule:nonzero;stroke:none"/></g><g id="g70" transform="translate(298.5481,228.0638)"><path d="m 0,0 c 0.258,0 0.357,-0.079 0.377,-0.377 l 0.04,-0.635 c 0.872,0.735 2.023,1.17 3.293,1.17 1.745,0 2.797,-0.971 2.797,-2.539 v -7.061 c 0,-0.297 -0.1,-0.397 -0.358,-0.397 h -1.15 c -0.258,0 -0.377,0.139 -0.377,0.397 v 6.605 c 0,0.893 -0.456,1.31 -1.468,1.31 -0.892,0 -1.844,-0.358 -2.698,-1.012 v -6.903 c 0,-0.297 -0.099,-0.397 -0.356,-0.397 h -1.152 c -0.258,0 -0.376,0.1 -0.376,0.397 v 9.065 C -1.428,-0.119 -1.31,0 -1.052,0 Z" id="path72" style="fill:#ffffff;fill-opacity:1;fill-rule:nonzero;stroke:none"/></g><g id="g74" transform="translate(312.4182,225.3861)"><path d="M 0,0 V -1.25 H 3.968 V 0 C 3.968,0.893 3.333,1.329 1.983,1.329 0.635,1.329 0,0.893 0,0 m 5.732,0.119 v -2.42 c 0,-0.238 -0.098,-0.357 -0.336,-0.357 H 0 v -1.825 c 0,-0.953 0.615,-1.329 1.983,-1.329 1.37,0 1.985,0.376 1.985,1.329 v 0.218 c 0,0.258 0.118,0.377 0.377,0.377 h 1.01 c 0.259,0 0.377,-0.119 0.377,-0.377 v -0.338 c 0,-1.824 -1.249,-2.717 -3.788,-2.717 -2.539,0 -3.789,0.893 -3.789,2.717 v 4.722 c 0,1.824 1.27,2.717 3.828,2.717 2.52,0 3.749,-0.893 3.749,-2.717" id="path76" style="fill:#ffffff;fill-opacity:1;fill-rule:nonzero;stroke:none"/></g><g id="g78" transform="translate(328.9651,227.846)"><path d="M 0,0 V -0.913 C 0,-1.171 -0.1,-1.29 -0.396,-1.31 -1.508,-1.369 -2.678,-1.885 -3.472,-2.579 v -6.646 c 0,-0.296 -0.098,-0.396 -0.356,-0.396 h -1.151 c -0.258,0 -0.376,0.1 -0.376,0.396 v 9.066 c 0,0.258 0.118,0.377 0.376,0.377 h 1.051 c 0.258,0 0.358,-0.079 0.377,-0.377 l 0.06,-0.853 c 0.873,0.872 1.983,1.388 3.095,1.388 C -0.139,0.376 0,0.258 0,0" id="path80" style="fill:#ffffff;fill-opacity:1;fill-rule:nonzero;stroke:none"/></g><g id="g82" transform="translate(335.2365,225.2269)"><path d="m 0,0 v -4.165 c 0,-0.854 0.496,-1.29 1.468,-1.29 0.873,0 1.746,0.317 2.698,1.012 V 0.258 C 3.293,0.913 2.36,1.29 1.468,1.29 0.496,1.29 0,0.854 0,0 m -1.885,-4.463 v 4.761 c 0,1.746 0.973,2.697 2.797,2.697 1.211,0 2.341,-0.396 3.293,-1.189 l 0.04,0.634 c 0.02,0.297 0.119,0.397 0.377,0.397 h 1.051 c 0.259,0 0.377,-0.1 0.377,-0.397 V -8.331 c 0,-1.766 -1.329,-2.718 -3.927,-2.718 h -2.738 c -0.297,0 -0.397,0.119 -0.397,0.377 v 0.833 c 0,0.258 0.139,0.377 0.397,0.377 h 2.738 c 1.368,0 2.043,0.437 2.043,1.329 V -6.05 C 3.114,-6.823 2.083,-7.161 0.912,-7.161 c -1.824,0 -2.797,0.953 -2.797,2.698" id="path84" style="fill:#ffffff;fill-opacity:1;fill-rule:nonzero;stroke:none"/></g><g id="g86" transform="translate(348.8879,218.6214)"><path d="m 0,0 c 0,-0.297 -0.099,-0.396 -0.356,-0.396 h -1.151 c -0.259,0 -0.377,0.099 -0.377,0.396 v 9.046 c 0,0.297 0.118,0.396 0.377,0.396 h 1.151 C -0.099,9.442 0,9.343 0,9.046 Z M 0,11.287 C 0,11.029 -0.119,10.91 -0.356,10.91 h -1.151 c -0.259,0 -0.377,0.119 -0.377,0.377 v 1.785 c 0,0.298 0.118,0.397 0.377,0.397 h 1.151 C -0.099,13.469 0,13.37 0,13.072 Z" id="path88" style="fill:#ffffff;fill-opacity:1;fill-rule:nonzero;stroke:none"/></g><g id="g90" transform="translate(360.0783,220.6449)"><path d="m 0,0 v 1.706 h -2.737 c -0.893,0 -1.31,-0.357 -1.31,-1.21 V 0.1 c 0,-0.775 0.417,-1.112 1.429,-1.112 0.872,0 1.764,0.358 2.618,1.012 m -5.653,4.899 c 0,1.766 1.269,2.678 3.749,2.678 2.519,0 3.749,-0.872 3.749,-2.678 v -6.922 c 0,-0.297 -0.1,-0.397 -0.358,-0.397 H 0.456 c -0.258,0 -0.357,0.1 -0.377,0.397 l -0.04,0.575 c -0.952,-0.734 -2.003,-1.131 -3.134,-1.131 -1.686,0 -2.797,0.973 -2.797,2.4 v 0.952 c 0,1.429 1.072,2.401 2.757,2.401 H 0 V 4.701 C 0,5.653 -0.596,6.05 -1.924,6.05 -3.293,6.05 -3.888,5.653 -3.888,4.761 V 4.603 c 0,-0.298 -0.119,-0.398 -0.377,-0.398 h -1.032 c -0.258,0 -0.356,0.1 -0.356,0.398 z" id="path92" style="fill:#ffffff;fill-opacity:1;fill-rule:nonzero;stroke:none"/></g><g id="g94" transform="translate(239.719,287.4644)"><path d="m 0,0 h -54.918 v -23.798 -3.156 -20.642 H 4.576 v 26.633 h -23.658 v -10.276 h 11.759 v -4.458 H -43.02 v 8.743 3.156 11.899 h 32.822 c 1.588,0 2.875,-1.288 2.875,-2.875 v -0.24 H 4.576 V -4.576 C 4.576,-2.049 2.527,0 0,0" id="path96" style="fill:#ffffff;fill-opacity:1;fill-rule:nonzero;stroke:none"/></g><g id="g98" transform="translate(433.1606,284.3651)"><path d="m 0,0 c 0,1.71 -1.386,3.096 -3.096,3.096 h -54.971 c -0.944,0 -1.71,-1.262 -1.71,-2.82 v -9.078 h 44.214 l -15.008,-17.307 h 12.588 L -2.803,-8.802 0,-5.57 Z" id="path100" style="fill:#efea45;fill-opacity:1;fill-rule:nonzero;stroke:none"/></g><g id="g102" transform="translate(388.9469,251.7673)"><path d="M 0,0 15.008,17.307 H 2.42 L -12.76,0 l -2.803,-3.232 0.172,-8.666 H 42.49 c 0.952,0 1.724,1.273 1.724,2.844 V 0 Z" id="path104" style="fill:#efea45;fill-opacity:1;fill-rule:nonzero;stroke:none"/></g><g id="g106" transform="translate(109.1853,268.2438)"><path d="M 0,0 C 0,-2.528 -2.049,-4.577 -4.577,-4.577 H -35.696 V 7.321 h 31.12 C -2.049,7.321 0,5.272 0,2.745 Z m 11.899,3.803 c 0,1.21 -0.138,2.388 -0.403,3.518 C 10.167,13.01 5.69,17.488 0,18.815 c -1.13,0.266 -2.309,0.406 -3.52,0.406 H -47.595 V 16.094 7.321 -4.577 -19.796 -28.375 h 11.899 v 8.579 3.319 H -3.52 c 0.542,0 1.078,0.029 1.605,0.083 0.651,0.068 1.291,0.175 1.915,0.323 5.69,1.327 10.167,5.805 11.494,11.494 0.007,0.028 0.014,0.055 0.02,0.082 0.253,1.106 0.385,2.256 0.385,3.437 z" id="path108" style="fill:#ffffff;fill-opacity:1;fill-rule:nonzero;stroke:none"/></g><g id="g110" transform="translate(168.1335,269.6472)"><path d="m 0,0 -2.455,5.918 -3.328,8.019 c -0.975,2.349 -3.268,3.88 -5.812,3.88 h -4.2 -10e-4 -3.17 -10e-4 -4.199 c -2.544,0 -4.838,-1.531 -5.813,-3.881 L -32.306,5.918 -34.762,0 -39.7,-11.898 l -7.42,-17.88 h 12.884 l 7.42,17.88 4.937,11.898 2.456,5.918 h 4.084 L -12.883,0 l 4.938,-11.898 7.421,-17.88 h 12.881 l -7.419,17.88 z" id="path112" style="fill:#ffffff;fill-opacity:1;fill-rule:nonzero;stroke:none"/></g><g id="g114" transform="translate(260.3933,287.4645)"><path d="m 0,0 h -11.898 v -47.596 h 59.494 v 11.899 l -47.596,0 z" id="path116" style="fill:#efea45;fill-opacity:1;fill-rule:nonzero;stroke:none"/></g><g id="g118" transform="translate(357.3259,251.7673)"><path d="m 0,0 h -31.096 c -2.528,0 -4.578,2.05 -4.578,4.578 V 35.697 H -47.572 V 1.186 c 1.013,-6.928 6.634,-12.359 13.649,-13.084 h 29.644 l 4.623,5.101 v -5.101 H 11.922 V 35.697 H 0.023 Z" id="path120" style="fill:#efea45;fill-opacity:1;fill-rule:nonzero;stroke:none"/></g><path d="m 450.882,278.243 h -12.067 v 5.669 h 12.067 z" id="path122" style="fill:#efea45;fill-opacity:1;fill-rule:nonzero;stroke:none"/><path d="m 430.896,292.58 h -5.669 v 12.067 h 5.669 z" id="path124" style="fill:#efea45;fill-opacity:1;fill-rule:nonzero;stroke:none"/><g id="g126" transform="translate(437.7441,287.6284)"><path d="M 0,0 8.421,8.421 4.412,12.43 -4.009,4.009 C -2.451,2.915 -1.094,1.558 0,0" id="path128" style="fill:#efea45;fill-opacity:1;fill-rule:nonzero;stroke:none"/></g></g></g></g></svg>